# xmcd
#
# Track frame offsets: 
#        150
#        13167
#        27030
#        43025
#        57525
#        78142
#        96010
#        111877
#        128625
#        142860
#        162407
#        181690
#        198155
#        208490
#        222365
#        241580
#        263442
#        286655
#        303805
#
# Disc length: 4319 seconds
#
# Revision: 14
# Processed by: cddbd v1.5.2PL0 Copyright (c) Steve Scherf et al.
# Submitted via: ExactAudioCopyFreeDBPlugin 1.0
#
DISCID=f610dd13
DTITLE=The Band - The Band (Remastered 2000)
DYEAR=1969
DGENRE=Rock
TTITLE0=Across The Great Divide
TTITLE1=Rag Mama Rag
TTITLE2=The Night They Drove Old Dixie Down
TTITLE3=When You Awake
TTITLE4=Up On Cripple Creek
TTITLE5=Whispering Pines
TTITLE6=Jemima Surrender
TTITLE7=Rockin' Chair
TTITLE8=Look Out Cleveland
TTITLE9=Jawbone
TTITLE10=The Unfaithful Servant
TTITLE11=King Harvest (Has Surely Come)
TTITLE12=Get Up Jake [outtake – stereo mix] [Bonus]
TTITLE13=Rag Mama Rag [alternate vocal take – rough mix] [Bonus]
TTITLE14=The Night They Drove Old Dixie Down [alternate mix] [Bonus]
TTITLE15=Up On Cripple Creek [alternate take] [Bonus]
TTITLE16=Whispering Pines (alternate take] [Bonus]
TTITLE17=Jemima Surrender [alternate take] [Bonus]
TTITLE18=King Harvest (Has Surely Come) [alternate performance] [Bonus
TTITLE18=]
EXTD=
EXTT0=
EXTT1=
EXTT2=
EXTT3=
EXTT4=
EXTT5=
EXTT6=
EXTT7=
EXTT8=
EXTT9=
EXTT10=
EXTT11=
EXTT12=
EXTT13=
EXTT14=
EXTT15=
EXTT16=
EXTT17=
EXTT18=
PLAYORDER=
